<svg width="32" height="32" viewBox="0 0 32 32" fill="none" xmlns="http://www.w3.org/2000/svg">
<path d="M27.0612 15.9387C27.201 16.0781 27.312 16.2437 27.3877 16.426C27.4634 16.6083 27.5024 16.8038 27.5024 17.0012C27.5024 17.1987 27.4634 17.3941 27.3877 17.5765C27.312 17.7588 27.201 17.9244 27.0612 18.0637L17.0612 28.0637C16.9218 28.2036 16.7563 28.3145 16.5739 28.3902C16.3916 28.466 16.1961 28.5049 15.9987 28.5049C15.8013 28.5049 15.6058 28.466 15.4235 28.3902C15.2411 28.3145 15.0756 28.2036 14.9362 28.0637L4.9362 18.0637C4.79667 17.9242 4.68599 17.7586 4.61047 17.5763C4.53496 17.394 4.49609 17.1986 4.49609 17.0012C4.49609 16.8039 4.53496 16.6085 4.61047 16.4262C4.68599 16.2439 4.79667 16.0783 4.9362 15.9387C5.07573 15.7992 5.24137 15.6885 5.42367 15.613C5.60598 15.5375 5.80137 15.4986 5.9987 15.4986C6.19602 15.4986 6.39141 15.5375 6.57372 15.613C6.75602 15.6885 6.92167 15.7992 7.0612 15.9387L15.9999 24.875L24.9387 15.935C25.0782 15.7958 25.2439 15.6854 25.4261 15.6103C25.6083 15.5351 25.8036 15.4966 26.0007 15.4969C26.1978 15.4973 26.393 15.5365 26.5749 15.6123C26.7569 15.6881 26.9221 15.799 27.0612 15.9387ZM14.9362 18.0637C15.0756 18.2036 15.2411 18.3145 15.4235 18.3902C15.6058 18.466 15.8013 18.5049 15.9987 18.5049C16.1961 18.5049 16.3916 18.466 16.5739 18.3902C16.7563 18.3145 16.9218 18.2036 17.0612 18.0637L27.0612 8.06374C27.2007 7.92421 27.3114 7.75857 27.3869 7.57626C27.4624 7.39396 27.5013 7.19857 27.5013 7.00124C27.5013 6.80392 27.4624 6.60853 27.3869 6.42622C27.3114 6.24392 27.2007 6.07827 27.0612 5.93874C26.9217 5.79921 26.756 5.68853 26.5737 5.61302C26.3914 5.53751 26.196 5.49864 25.9987 5.49864C25.8014 5.49864 25.606 5.53751 25.4237 5.61302C25.2414 5.68853 25.0757 5.79921 24.9362 5.93874L15.9999 14.875L7.0612 5.93874C6.7794 5.65695 6.39721 5.49864 5.9987 5.49864C5.60018 5.49864 5.21799 5.65695 4.9362 5.93874C4.6544 6.22054 4.49609 6.60273 4.49609 7.00124C4.49609 7.39976 4.6544 7.78195 4.9362 8.06374L14.9362 18.0637Z" fill="#878EA1"/>
</svg>
